<svg xmlns="http://www.w3.org/2000/svg" width="1200" height="630" viewBox="0 0 1200 630" role="img" aria-labelledby="title desc">
  <title id="title">TubeLM Link Picker</title>
  <desc id="desc">Batch-select YouTube videos and Shorts, copy clean URLs, and paste them into NotebookLM.</desc>
  <defs>
    <linearGradient id="thumb" x1="0" y1="0" x2="1" y2="1">
      <stop offset="0" stop-color="#1b1f27"/>
      <stop offset="1" stop-color="#303947"/>
    </linearGradient>
    <filter id="shadow" x="-20%" y="-20%" width="140%" height="140%">
      <feDropShadow dx="0" dy="22" stdDeviation="28" flood-color="#1e2732" flood-opacity="0.22"/>
    </filter>
  </defs>

  <rect width="1200" height="630" fill="#f4f6f8"/>
  <path d="M0 540H1200" stroke="#121417" stroke-opacity="0.08"/>
  <path d="M0 438H1200" stroke="#121417" stroke-opacity="0.05"/>
  <path d="M0 336H1200" stroke="#121417" stroke-opacity="0.05"/>
  <path d="M0 234H1200" stroke="#121417" stroke-opacity="0.05"/>
  <path d="M0 132H1200" stroke="#121417" stroke-opacity="0.05"/>
  <path d="M156 0V630" stroke="#121417" stroke-opacity="0.06"/>
  <path d="M396 0V630" stroke="#121417" stroke-opacity="0.06"/>
  <path d="M636 0V630" stroke="#121417" stroke-opacity="0.06"/>
  <path d="M876 0V630" stroke="#121417" stroke-opacity="0.06"/>
  <path d="M1116 0V630" stroke="#121417" stroke-opacity="0.06"/>

  <g transform="translate(84 74)">
    <rect width="72" height="72" rx="14" fill="#121417"/>
    <rect y="58" width="72" height="14" rx="0" fill="#ff0033"/>
    <text x="36" y="43" text-anchor="middle" font-family="Inter, Segoe UI, Arial, sans-serif" font-size="22" font-weight="800" fill="#ffffff">TL</text>
  </g>

  <g transform="translate(84 184)">
    <text font-family="Inter, Segoe UI, Arial, sans-serif" font-size="28" font-weight="800" letter-spacing="2" fill="#10b981">CHROME EXTENSION FOR NOTEBOOKLM</text>
    <text y="86" font-family="Inter, Segoe UI, Arial, sans-serif" font-size="76" font-weight="850" fill="#121417">TubeLM</text>
    <text y="166" font-family="Inter, Segoe UI, Arial, sans-serif" font-size="76" font-weight="850" fill="#121417">Link Picker</text>
    <text y="232" font-family="Inter, Segoe UI, Arial, sans-serif" font-size="30" font-weight="500" fill="#46515f">Batch-copy clean YouTube URLs</text>
    <text y="274" font-family="Inter, Segoe UI, Arial, sans-serif" font-size="30" font-weight="500" fill="#46515f">for NotebookLM and AI research notes.</text>
  </g>

  <g transform="translate(720 112)" filter="url(#shadow)">
    <rect width="392" height="396" rx="18" fill="#ffffff" stroke="#121417" stroke-opacity="0.12"/>
    <rect width="392" height="62" rx="18" fill="#121417"/>
    <rect y="44" width="392" height="18" fill="#121417"/>
    <circle cx="28" cy="30" r="7" fill="#ff0033"/>
    <circle cx="50" cy="30" r="7" fill="#ffbe0b"/>
    <circle cx="72" cy="30" r="7" fill="#10b981"/>
    <text x="112" y="38" font-family="Inter, Segoe UI, Arial, sans-serif" font-size="16" font-weight="750" fill="#ffffff">TubeLM selection</text>

    <g transform="translate(24 94)">
      <rect width="92" height="56" rx="8" fill="url(#thumb)"/>
      <path d="M40 18L66 28L40 38Z" fill="#ffffff"/>
      <rect x="134" y="8" width="172" height="14" rx="7" fill="#121417"/>
      <rect x="134" y="36" width="108" height="10" rx="5" fill="#cbd2dc"/>
      <rect x="322" y="14" width="28" height="28" rx="7" fill="#10b981"/>
      <path d="M329 28L335 34L345 21" fill="none" stroke="#ffffff" stroke-width="4" stroke-linecap="round" stroke-linejoin="round"/>
    </g>

    <g transform="translate(24 174)">
      <rect width="92" height="56" rx="8" fill="url(#thumb)"/>
      <path d="M40 18L66 28L40 38Z" fill="#ffffff"/>
      <rect x="134" y="8" width="188" height="14" rx="7" fill="#121417"/>
      <rect x="134" y="36" width="132" height="10" rx="5" fill="#cbd2dc"/>
      <rect x="322" y="14" width="28" height="28" rx="7" fill="#10b981"/>
      <path d="M329 28L335 34L345 21" fill="none" stroke="#ffffff" stroke-width="4" stroke-linecap="round" stroke-linejoin="round"/>
    </g>

    <g transform="translate(24 254)">
      <rect width="92" height="56" rx="8" fill="url(#thumb)"/>
      <path d="M40 18L66 28L40 38Z" fill="#ffffff"/>
      <rect x="134" y="8" width="150" height="14" rx="7" fill="#121417"/>
      <rect x="134" y="36" width="120" height="10" rx="5" fill="#cbd2dc"/>
      <rect x="322" y="14" width="28" height="28" rx="7" fill="#10b981"/>
      <path d="M329 28L335 34L345 21" fill="none" stroke="#ffffff" stroke-width="4" stroke-linecap="round" stroke-linejoin="round"/>
    </g>

    <rect x="24" y="338" width="344" height="36" rx="8" fill="#121417"/>
    <text x="48" y="362" font-family="Inter, Segoe UI, Arial, sans-serif" font-size="15" font-weight="800" fill="#ffffff">Copy 18 clean URLs</text>
    <text x="246" y="362" font-family="Inter, Segoe UI, Arial, sans-serif" font-size="13" font-weight="650" fill="#aeb7c3">newline list</text>
  </g>
</svg>
